<?xml version="1.0" encoding="UTF-8" standalone="no"?>
<svg
   version="1.2"
   viewBox="0 0 1024 1536"
   width="1024"
   height="1536"
   id="svg1"
   xmlns="http://www.w3.org/2000/svg"
   xmlns:svg="http://www.w3.org/2000/svg">
  <defs
     id="defs1" />
  <style
     id="style1" />
  
  <path
     style="fill:#78350F;stroke:#522607"
     d="m 487,191.53972 c -55.63361,4.1178 -110.81482,17.74206 -160,44.64075 -39.03285,21.34643 -72.4426,49.07421 -102.41475,81.87866 -23.42567,25.6394 -43.16071,53.63794 -58.22114,85 -36.26864,75.52636 -46.7022,161.9281 -29.51134,244 12.49182,59.63782 39.32956,114.86468 66.39723,169 37.79338,75.58679 79.3672,149.35077 120.77757,222.99997 45.90088,81.6357 91.18337,163.6211 137.54018,245 11.04584,19.3909 21.77692,38.9873 33.47439,57.9989 3.39585,5.5192 8.92515,16.7494 16.88169,15.7303 7.70737,-0.9875 12.55313,-11.899 16.06848,-17.7294 11.12726,-18.4555 21.65326,-37.256 32.2818,-55.9998 43.33945,-76.4307 85.69263,-153.4135 128.75342,-230 36.53375,-64.97769 73.06421,-130.03128 107.78326,-195.99997 50.49255,-95.93946 103.36853,-197.23718 96.91431,-309 -1.67853,-29.0658 -6.65814,-58.09387 -14.98792,-86 -8.08679,-27.09217 -18.89673,-53.38068 -32.85669,-78 C 827.76825,353.11699 805.27698,323.48405 778.86908,297.96049 744.45386,264.6978 704.26147,238.7011 660,220.55278 606.24207,198.51079 545.12692,187.23747 487,191.53972 m 10,82.92077 c 36.28296,-2.42968 74.60431,3.87232 109,15.27845 36.50208,12.10461 70.68799,30.37524 100,55.40765 103.47675,88.36902 132.98395,244.45563 70.16571,364.91254 C 748.25452,763.58018 704.70966,806.86363 652,835.99834 615.84241,855.98405 575.22333,868.05193 534,870.7202 494.23431,873.29411 453.75397,869.3853 416,856.27019 369.76714,840.20964 326.83849,812.75407 293.29695,777.0443 217.17389,696.00029 192.29362,574.60692 230.03371,470.05913 c 11.78881,-32.65741 29.1927,-63.48499 51.64219,-90 23.96082,-28.30005 53.35887,-52.56616 86.3241,-69.68958 40.68704,-21.1344 83.31778,-32.84985 129,-35.90906 m 191.98718,109.84815 c -7.65362,2.47198 -13.43298,11.39868 -17.65503,17.75085 -13.01184,19.57642 -17.42596,43.00782 -19.73864,65.99964 -1.84418,18.33465 -2.59382,36.58404 -2.59351,55 1.8e-4,13.85785 0.0865,27.52295 3.77637,41 2.05871,7.51941 5.19409,14.58874 9.64966,21 4.17059,6.00116 9.65472,11.52154 10.91394,19 1.76855,10.50317 -0.75281,22.40588 -1.22413,33 -1.11267,25.00915 -2.61084,50.00317 -3.96752,75 -0.70453,12.98047 -1.85419,26.00293 -2.09839,39 -0.12171,6.47784 -0.72113,13.67248 1.10406,19.96295 3.16492,10.90778 16.00488,17.53912 26.82807,14.29114 9.1875,-2.75714 14.19244,-11.09253 14.83258,-20.25446 1.26733,-18.13977 -1.49439,-36.8255 -1.86255,-54.99963 -0.78345,-38.67169 -3.17206,-77.32434 -3.90229,-116 -0.77899,-41.26117 0.54548,-82.79938 -1.77685,-124 -1.29193,-22.92078 -5.5e-4,-46.04785 -0.29517,-68.99921 -0.0902,-7.02392 -1.52118,-20.13275 -11.9906,-16.75128 m -377.35345,1.88507 c -6.39342,2.87463 -4.6147,18.34247 -4.63144,23.86542 -0.0717,23.66314 -1.60329,47.33734 -2.05203,71 -0.24054,12.68408 -0.97025,25.2962 -0.94799,38 0.0131,7.4967 -0.21283,15.19476 3.64562,21.9107 4.9127,8.55103 13.86761,13.13166 21.12375,19.35712 6.98324,5.99133 12.16195,13.6579 14.09057,22.73224 4.07622,19.17895 0.66553,41.58649 -0.52929,60.99994 -1.96817,31.97876 -3.07933,64.0191 -5.14841,96 -1.05803,16.35364 -5.44071,42.88232 16.8237,46.96246 2.98065,0.5462 6.06341,0.36994 8.9641,-0.50574 22.83906,-6.89471 16.89755,-36.58514 15.70324,-54.45672 l -0.87144,-14 c -1.88489,-30.96588 -4.00896,-61.98926 -4.86902,-93 -0.3932,-14.17761 -3.25395,-30.06623 0.32208,-43.99988 4.82756,-18.81006 25.28537,-23.58167 34.54209,-39.02985 4.21234,-7.02984 4.19058,-15.03344 4.19366,-22.97027 0.005,-12.96466 -0.64261,-26.0409 -1.12357,-39 -0.87686,-23.62598 -0.94171,-47.41376 -2.47146,-71 -0.34036,-5.24799 1.75226,-20.17108 -4.27439,-22.86542 -3.17321,-1.41864 -5.03805,2.79138 -5.69207,5.11725 -1.77231,6.30279 -1.36924,13.268 -1.4509,19.74817 -0.31918,25.32342 -1.85541,50.69403 -2.85333,76 -0.21305,5.40222 0.34793,11.43408 -1.55417,16.59472 -0.90485,2.4549 -3.04578,5.35456 -6.04343,4.21644 -6.92654,-2.62989 -5.45225,-18.06287 -5.52408,-23.81116 -0.29486,-23.59931 -1.03547,-47.42847 -2.22419,-71 -0.34336,-6.80847 -0.0839,-14.12274 -1.25722,-20.83356 -0.39966,-2.28583 -1.30199,-5.66107 -3.97762,-6.22455 -2.67672,-0.56366 -4.43498,2.33527 -5.22017,4.43006 -2.00827,5.35778 -1.81849,11.97485 -2.10699,17.62805 -1.27438,24.97156 -1.29007,50.01672 -2.39032,75 -0.28479,6.46673 0.23871,14.47882 -1.97559,20.6167 -0.88498,2.45312 -3.08561,5.35632 -6.05986,4.18005 -6.85354,-2.71051 -4.71275,-17.15399 -4.9239,-22.79675 l -2.73903,-72 c -0.26331,-7.09491 0.72723,-14.7992 -0.96432,-21.74817 -0.55042,-2.26111 -1.99465,-5.94251 -4.99509,-5.30994 -6.98808,1.47327 -5.19486,17.06067 -5.50382,22.05811 -1.49784,24.22827 -2.24372,48.72803 -2.67544,73 -0.12074,6.78821 0.0191,14.17993 -1.55174,20.81878 -0.59046,2.49543 -2.08037,6.22577 -5.27826,5.90613 -2.49816,-0.24969 -3.84937,-2.90185 -4.55567,-4.99957 -1.8761,-5.57202 -1.5074,-11.9278 -1.64677,-17.72534 -0.58515,-24.34021 -2.11939,-48.66425 -2.86228,-73 -0.20671,-6.77136 0.68906,-14.12213 -0.97085,-20.74817 -0.57594,-2.29907 -2.34743,-6.53143 -5.49266,-5.11725 M 500,466.60161 c -17.9635,1.70343 -36.19742,6.82245 -51.99762,15.63586 -6.9086,3.85364 -14.07822,8.40729 -17.42859,15.89337 -6.18408,13.81775 -1.37189,30.19825 -8.33752,43.9007 -5.37073,10.56506 -15.70706,14.65912 -23.6864,22.65338 -5.56485,5.57526 -8.53974,12.75403 -10.09043,20.37421 -2.18133,10.7193 -1.83743,22.21283 -0.3161,33 9.2992,65.93677 73.4292,109.69787 137.85666,103.45331 27.29431,-2.64545 54.06818,-14.81946 73.91901,-33.73334 42.19122,-40.19983 52.6618,-108.34705 22.83297,-158.71997 -7.31494,-12.35297 -16.66421,-23.69287 -27.76156,-32.82178 -12.72241,-10.4657 -27.2713,-18.7337 -42.99042,-23.74164 -16.70032,-5.32055 -34.51892,-7.55182 -52,-5.8941 m 0,39.02746 c 15.08112,-1.81897 30.84012,-0.31262 45,5.25873 54.00412,21.24835 73.08105,89.5932 39.59604,136.16937 -7.17154,9.97529 -16.09747,18.30396 -26.5961,24.69471 -10.99768,6.69458 -23.24075,10.69696 -35.99994,12.23761 -10.96487,1.32397 -22.3197,0.33789 -33,-2.4411 -10.3772,-2.70014 -20.31683,-7.35383 -28.9989,-13.64936 C 408.88245,630.83208 411.60022,550.1071 466,517.45085 c 10.23795,-6.14587 22.1235,-10.38934 34,-11.82178 m 1,10.07221 c -9.44949,1.17828 -18.62717,4.31842 -26.99997,8.82171 -49.63641,26.69678 -54.94919,99.69617 -9.96374,133.5 7.23382,5.4358 15.31161,9.79096 23.96371,12.4834 10.93854,3.404 22.63605,4.30439 34,2.91523 9.78793,-1.19654 19.34531,-4.16059 27.99973,-8.89582 48.55947,-26.56927 54.38525,-95.23272 12.9815,-130.85486 C 555.116,526.90404 545.89026,521.72173 536,518.57848 c -11.18692,-3.5553 -23.37024,-4.32734 -35,-2.8772 z"
     id="path1" />
</svg>
